HIERARCHY
ROOT hip
{
	OFFSET 0.000000 0.000000 0.000000 
	CHANNELS 6 Xposition Yposition Zposition Xrotation Zrotation Yrotation
	JOINT abdomen
	{
		OFFSET 0.000000 3.402643 0.000000 
		CHANNELS 3 Xrotation Zrotation Yrotation
		JOINT chest
		{
			OFFSET 0.000000 8.438565 -0.680529 
			CHANNELS 3 Xrotation Zrotation Yrotation
			JOINT neck
			{
				OFFSET 0.000000 10.207942 -0.272212 
				CHANNELS 3 Xrotation Zrotation Yrotation
				JOINT head
				{
					OFFSET 0.000000 3.130431 0.000000 
					CHANNELS 3 Xrotation Zrotation Yrotation
					End Site
					{
						OFFSET 0.000000 3.130435 0.000000 
					}
				}
			}
			JOINT lCollar
			{
				OFFSET 3.470700 6.669187 -0.816635 
				CHANNELS 3 Yrotation Zrotation Xrotation
				JOINT lShldr
				{
					OFFSET 3.198488 0.000000 0.000000 
					CHANNELS 3 Zrotation Yrotation Xrotation
					JOINT lForeArm
					{
						OFFSET 10.139888 0.000000 0.000000 
						CHANNELS 3 Yrotation Zrotation Xrotation
						JOINT lHand
						{
							OFFSET 8.370511 0.000000 0.000000 
							CHANNELS 3 Zrotation Yrotation Xrotation
							End Site
							{
								OFFSET 4.083176 0.000000 0.000000 
							}
						}
					}
				}
			}
			JOINT rCollar
			{
				OFFSET -3.470700 6.669187 -0.816635 
				CHANNELS 3 Yrotation Zrotation Xrotation
				JOINT rShldr
				{
					OFFSET -3.198488 0.000000 0.000000 
					CHANNELS 3 Zrotation Yrotation Xrotation
					JOINT rForeArm
					{
						OFFSET -10.139888 0.000000 0.000000 
						CHANNELS 3 Yrotation Zrotation Xrotation
						JOINT rHand
						{
							OFFSET -8.370511 0.000000 0.000000 
							CHANNELS 3 Zrotation Yrotation Xrotation
							End Site
							{
								OFFSET -4.083176 0.000000 0.000000 
							}
						}
					}
				}
			}
		}
	}
	JOINT lThigh
	{
		OFFSET 5.308129 -1.633274 1.361059 
		CHANNELS 3 Xrotation Zrotation Yrotation
		JOINT lShin
		{
			OFFSET -2.041588 -20.007561 0.000000 
			CHANNELS 3 Xrotation Zrotation Yrotation
			JOINT lFoot
			{
				OFFSET 0.000000 -19.190928 -1.224953 
				CHANNELS 3 Xrotation Yrotation Zrotation
				End Site
				{
					OFFSET 0.000000 -2.449906 4.627600 
				}
			}
		}
	}
	JOINT rThigh
	{
		OFFSET -5.308129 -1.633274 1.361059 
		CHANNELS 3 Xrotation Zrotation Yrotation
		JOINT rShin
		{
			OFFSET 2.041588 -20.007561 0.000000 
			CHANNELS 3 Xrotation Zrotation Yrotation
			JOINT rFoot
			{
				OFFSET 0.000000 -19.190928 -1.224953 
				CHANNELS 3 Xrotation Yrotation Zrotation
				End Site
				{
					OFFSET 0.000000 -2.449906 4.627600 
				}
			}
		}
	}
}
MOTION
Frames: 7
Frame Time: 0.033333
0.096735 19.218292 0.096735 24.907530 -10.944313 -27.683699 16.027517 22.986898 -13.546754 9.482421 0.000000 -0.019531 -8.544922 -0.001505 -0.009645 20.569584 -4.766392 43.349842 2.000000 -2.000000 0.000000 -69.737183 -46.663979 -0.391981 -53.892414 -0.561341 8.614923 -47.338093 -38.924122 -140.750931 -2.000000 2.000000 0.000000 121.501678 50.368130 75.753540 78.504036 0.507654 8.861550 66.044060 -68.757454 -88.326187 -174.234497 15.956155 -26.620007 123.661041 4.682224 -3.337483 15.021631 9.187225 14.514510 -45.628906 -26.589525 8.592195 130.024567 -5.085339 2.989584 -21.007200 35.317093 39.814503 
0.096735 18.857672 0.096735 22.347055 -11.845753 -25.712221 16.027517 22.986898 -13.546754 9.482421 0.000000 -0.019531 -8.544922 -0.001505 -0.009645 20.569584 -4.766392 43.349842 2.000000 -2.000000 0.000000 -75.404991 -47.366867 6.443069 -55.463230 -0.557161 8.638479 -44.976196 -35.882931 -141.353409 -2.000000 2.000000 0.000000 109.917366 49.029015 65.534134 89.882736 0.522888 8.986118 78.405029 -69.673424 -101.153473 -170.868393 17.128773 -23.944832 122.242271 4.613651 -3.401005 15.577107 9.421402 15.877835 -42.080124 -27.173304 7.925316 129.896622 -5.065629 3.015578 -21.361082 34.803867 40.522850 
0.096735 19.058023 0.096735 22.627338 -11.495687 -25.754946 16.027517 22.986898 -13.546754 9.482421 0.000000 -0.019531 -8.544922 -0.001505 -0.009645 20.569584 -4.766392 43.349842 2.000000 -2.000000 0.000000 -73.298531 -47.796940 4.199133 -57.634872 -0.548714 8.648433 -45.839558 -34.712856 -141.307663 -2.000000 2.000000 0.000000 110.862831 48.873196 66.704262 89.817238 0.514912 8.983764 71.975967 -70.432320 -95.477547 -170.410126 17.382830 -24.042244 121.625603 4.579604 -3.438443 15.465355 9.365104 15.456993 -41.475796 -25.689545 7.204944 129.113861 -5.026666 3.036562 -27.884621 32.296467 41.878391 
0.096735 19.233318 0.096735 23.070696 -10.943673 -25.833414 16.027517 22.986898 -13.546754 9.482421 0.000000 -0.019531 -8.544922 -0.001505 -0.009645 20.569584 -4.766392 43.349842 2.000000 -2.000000 0.000000 -71.295006 -47.098522 2.015393 -61.342155 -0.536422 8.688060 -46.362431 -33.427380 -141.740036 -2.000000 2.000000 0.000000 111.764160 48.377453 68.191216 90.423935 0.516156 8.994089 66.472740 -71.564545 -90.782547 -170.400803 17.441525 -24.350183 121.605865 4.575933 -3.445116 15.176863 9.304737 14.739193 -41.142269 -24.765442 6.682405 128.408524 -4.988246 3.080194 -31.823196 30.453695 42.359150 
0.096735 19.328480 0.096735 23.630508 -10.223450 -25.923635 16.027517 22.986898 -13.546754 9.482421 0.000000 -0.019531 -8.544922 -0.001505 -0.009645 20.569584 -4.766392 43.349842 2.000000 -2.000000 0.000000 -68.754402 -48.535965 -1.288667 -54.647285 -0.561591 8.616600 -49.172832 -38.429375 -139.109421 -2.000000 2.000000 0.000000 119.924149 49.364922 75.313042 81.454285 0.506543 8.899448 59.637436 -71.321426 -83.951714 -171.104721 17.234646 -24.932064 122.467300 4.615262 -3.395699 14.574865 9.225592 13.807532 -40.996334 -24.771088 6.556784 127.849762 -4.958707 3.126969 -32.180687 30.011889 42.347488 
0.096735 19.413630 0.096735 24.228527 -9.469583 -26.011707 16.027517 22.986898 -13.546754 9.482421 0.000000 -0.019531 -8.544922 -0.001505 -0.009645 20.569584 -4.766392 43.349842 2.000000 -2.000000 0.000000 -66.231865 -50.122097 -4.261508 -47.904018 -0.593857 8.554973 -52.328789 -43.070766 -136.021042 -2.000000 2.000000 0.000000 128.283630 49.630165 82.505707 72.520866 0.510282 8.809723 53.125099 -70.835129 -77.459198 -172.021576 16.923878 -25.630276 123.670204 4.683212 -3.353953 13.889104 9.102643 12.810051 -41.115658 -24.762398 6.640859 127.575775 -4.931507 3.140563 -32.684464 29.579672 42.501682 
0.096735 19.533827 0.096735 25.099764 -8.355979 -26.120283 16.027517 22.986898 -13.546754 9.482421 0.000000 -0.019531 -8.544922 -0.001505 -0.009645 20.569584 -4.766392 43.349842 2.000000 -2.000000 0.000000 -61.183804 -55.189144 -9.441463 -32.724869 -0.689453 8.438475 -60.358185 -50.688171 -127.452110 -2.000000 2.000000 0.000000 -36.603882 131.219574 -85.094208 55.594460 0.551934 8.628185 41.820160 -68.439278 -66.074585 -173.356491 16.425177 -26.669498 125.637794 4.799518 -3.239725 12.661172 8.918077 11.314222 -41.408154 -24.742605 6.867703 127.243217 -4.929424 3.143981 -33.458588 28.956923 42.775124 
